# Blender v2.79 (sub 0) OBJ File: 'cadre.blend'
# www.blender.org
mtllib cadre2.mtl
o Plane
v -3.865354 0.000000 1.000000
v -3.734195 0.000000 0.808454
v -3.734195 0.000000 -0.002374
v -3.865354 0.000000 -0.002374
v -3.632554 0.000000 0.808454
v -3.547301 0.000000 0.602083
v -3.403027 0.000000 0.410452
v -3.284984 0.000000 0.410452
v -3.193173 0.000000 0.557860
v -3.098084 0.000000 0.764232
v -2.753962 0.000000 0.764232
v -2.753962 0.000000 0.764232
v -3.865354 7.849649 1.000000
v -3.734195 7.718387 0.808454
v -3.734195 7.718387 -0.002374
v -3.865354 7.849649 -0.002374
v -3.632554 7.616665 0.808454
v -3.547301 7.531344 0.602083
v -3.403027 7.386956 0.410452
v -3.284984 7.268820 0.410452
v -3.193173 7.176937 0.557860
v -3.098084 7.081772 0.764232
v -2.753962 6.737378 0.764232
v -2.753962 6.737378 0.764232
v 0.018808 7.849649 1.000000
v 0.018808 7.718387 0.808454
v 0.018808 7.718387 -0.002374
v 0.018808 7.849649 -0.002374
v 0.018808 7.616665 0.808454
v 0.018808 7.531344 0.602083
v 0.018808 7.386956 0.410452
v 0.018808 7.268820 0.410452
v 0.018808 7.176937 0.557860
v 0.018808 7.081772 0.764232
v 0.018808 6.737378 0.764232
v 0.018808 6.737378 0.764232
v 3.902969 0.000000 1.000000
v 3.771811 0.000000 0.808454
v 3.771811 0.000000 -0.002374
v 3.902969 0.000000 -0.002374
v 3.670170 0.000000 0.808454
v 3.584917 0.000000 0.602083
v 3.440642 0.000000 0.410452
v 3.322600 0.000000 0.410452
v 3.230789 0.000000 0.557860
v 3.135700 0.000000 0.764232
v 2.791578 0.000000 0.764232
v 2.791578 0.000000 0.764232
v 3.902969 7.849649 1.000000
v 3.771811 7.718387 0.808454
v 3.771811 7.718387 -0.002374
v 3.902969 7.849649 -0.002374
v 3.670170 7.616665 0.808454
v 3.584917 7.531344 0.602083
v 3.440642 7.386956 0.410452
v 3.322600 7.268820 0.410452
v 3.230789 7.176937 0.557860
v 3.135700 7.081772 0.764232
v 2.791578 6.737378 0.764232
v 2.791578 6.737378 0.764232
v 0.018808 7.849649 1.000000
v 0.018808 7.718387 0.808454
v 0.018808 7.718387 -0.002374
v 0.018808 7.849649 -0.002374
v 0.018808 7.616665 0.808454
v 0.018808 7.531344 0.602083
v 0.018808 7.386956 0.410452
v 0.018808 7.268820 0.410452
v 0.018808 7.176937 0.557860
v 0.018808 7.081772 0.764232
v 0.018808 6.737378 0.764232
v 0.018808 6.737378 0.764232
v -3.865354 0.000000 1.000000
v -3.734195 0.000000 0.808454
v -3.734195 0.000000 -0.002374
v -3.865354 0.000000 -0.002374
v -3.632554 0.000000 0.808454
v -3.547301 0.000000 0.602083
v -3.403027 0.000000 0.410452
v -3.284984 0.000000 0.410452
v -3.193173 0.000000 0.557860
v -3.098084 0.000000 0.764232
v -2.753962 0.000000 0.764232
v -2.753962 0.000000 0.764232
v -3.865354 -7.849649 1.000000
v -3.734195 -7.718387 0.808454
v -3.734195 -7.718387 -0.002374
v -3.865354 -7.849649 -0.002374
v -3.632554 -7.616665 0.808454
v -3.547301 -7.531344 0.602083
v -3.403027 -7.386956 0.410452
v -3.284984 -7.268820 0.410452
v -3.193173 -7.176937 0.557860
v -3.098084 -7.081772 0.764232
v -2.753962 -6.737378 0.764232
v -2.753962 -6.737378 0.764232
v 0.018808 -7.849649 1.000000
v 0.018808 -7.718387 0.808454
v 0.018808 -7.718387 -0.002374
v 0.018808 -7.849649 -0.002374
v 0.018808 -7.616665 0.808454
v 0.018808 -7.531344 0.602083
v 0.018808 -7.386956 0.410452
v 0.018808 -7.268820 0.410452
v 0.018808 -7.176937 0.557860
v 0.018808 -7.081772 0.764232
v 0.018808 -6.737378 0.764232
v 0.018808 -6.737378 0.764232
v 3.902969 0.000000 1.000000
v 3.771811 0.000000 0.808454
v 3.771811 0.000000 -0.002374
v 3.902969 0.000000 -0.002374
v 3.670170 0.000000 0.808454
v 3.584917 0.000000 0.602083
v 3.440642 0.000000 0.410452
v 3.322600 0.000000 0.410452
v 3.230789 0.000000 0.557860
v 3.135700 0.000000 0.764232
v 2.791578 0.000000 0.764232
v 2.791578 0.000000 0.764232
v 3.902969 -7.849649 1.000000
v 3.771811 -7.718387 0.808454
v 3.771811 -7.718387 -0.002374
v 3.902969 -7.849649 -0.002374
v 3.670170 -7.616665 0.808454
v 3.584917 -7.531344 0.602083
v 3.440642 -7.386956 0.410452
v 3.322600 -7.268820 0.410452
v 3.230789 -7.176937 0.557860
v 3.135700 -7.081772 0.764232
v 2.791578 -6.737378 0.764232
v 2.791578 -6.737378 0.764232
v 0.018808 -7.849649 1.000000
v 0.018808 -7.718387 0.808454
v 0.018808 -7.718387 -0.002374
v 0.018808 -7.849649 -0.002374
v 0.018808 -7.616665 0.808454
v 0.018808 -7.531344 0.602083
v 0.018808 -7.386956 0.410452
v 0.018808 -7.268820 0.410452
v 0.018808 -7.176937 0.557860
v 0.018808 -7.081772 0.764232
v 0.018808 -6.737378 0.764232
v 0.018808 -6.737378 0.764232
vn -0.0000 0.0000 1.0000
vn -0.9082 0.0000 0.4185
vn 0.7989 0.0000 0.6015
vn -1.0000 0.0000 0.0000
vn 1.0000 -0.0000 0.0000
vn -0.8488 0.0000 0.5287
vn 0.9242 0.0000 0.3818
vn 0.0000 0.8486 0.5290
vn 0.0000 -0.9241 0.3821
vn 0.0000 0.9081 0.4188
vn 0.0000 -0.7987 0.6018
vn -0.0000 1.0000 0.0000
vn 0.0000 -1.0000 0.0000
vn 0.9082 0.0000 0.4185
vn -0.7989 0.0000 0.6015
vn 0.8488 0.0000 0.5287
vn -0.9242 0.0000 0.3818
vn 0.0000 -0.8486 0.5290
vn 0.0000 0.9241 0.3821
vn 0.0000 -0.9081 0.4188
vn 0.0000 0.7987 0.6018
usemtl None
s off
f 2//1 17//1 14//1
f 9//2 22//2 21//2
f 6//3 19//3 18//3
f 3//4 14//4 15//4
f 10//1 23//1 22//1
f 7//1 20//1 19//1
f 4//5 13//5 1//5
f 12//1 23//1 11//1
f 4//1 15//1 16//1
f 8//6 21//6 20//6
f 5//7 18//7 17//7
f 15//1 28//1 16//1
f 21//8 32//8 20//8
f 18//9 29//9 17//9
f 17//1 26//1 14//1
f 22//10 33//10 21//10
f 19//11 30//11 18//11
f 14//12 27//12 15//12
f 23//1 34//1 22//1
f 20//1 31//1 19//1
f 16//13 25//13 13//13
f 24//1 35//1 23//1
f 38//1 53//1 41//1
f 45//14 58//14 46//14
f 42//15 55//15 43//15
f 39//5 50//5 38//5
f 46//1 59//1 47//1
f 43//1 56//1 44//1
f 49//4 40//4 37//4
f 59//1 48//1 47//1
f 40//1 51//1 39//1
f 44//16 57//16 45//16
f 41//17 54//17 42//17
f 64//1 51//1 52//1
f 68//8 57//8 56//8
f 65//9 54//9 53//9
f 62//1 53//1 50//1
f 69//10 58//10 57//10
f 66//11 55//11 54//11
f 63//12 50//12 51//12
f 70//1 59//1 58//1
f 67//1 56//1 55//1
f 61//13 52//13 49//13
f 71//1 60//1 59//1
f 74//1 89//1 77//1
f 81//2 94//2 82//2
f 78//3 91//3 79//3
f 75//4 86//4 74//4
f 82//1 95//1 83//1
f 79//1 92//1 80//1
f 85//5 76//5 73//5
f 95//1 84//1 83//1
f 76//1 87//1 75//1
f 80//6 93//6 81//6
f 77//7 90//7 78//7
f 100//1 87//1 88//1
f 104//18 93//18 92//18
f 101//19 90//19 89//19
f 98//1 89//1 86//1
f 105//20 94//20 93//20
f 102//21 91//21 90//21
f 99//13 86//13 87//13
f 106//1 95//1 94//1
f 103//1 92//1 91//1
f 97//12 88//12 85//12
f 107//1 96//1 95//1
f 110//1 125//1 122//1
f 117//14 130//14 129//14
f 114//15 127//15 126//15
f 111//5 122//5 123//5
f 118//1 131//1 130//1
f 115//1 128//1 127//1
f 112//4 121//4 109//4
f 120//1 131//1 119//1
f 112//1 123//1 124//1
f 116//16 129//16 128//16
f 113//17 126//17 125//17
f 123//1 136//1 124//1
f 129//18 140//18 128//18
f 126//19 137//19 125//19
f 125//1 134//1 122//1
f 130//20 141//20 129//20
f 127//21 138//21 126//21
f 122//13 135//13 123//13
f 131//1 142//1 130//1
f 128//1 139//1 127//1
f 124//12 133//12 121//12
f 132//1 143//1 131//1
f 2//1 5//1 17//1
f 9//2 10//2 22//2
f 6//3 7//3 19//3
f 3//4 2//4 14//4
f 10//1 11//1 23//1
f 7//1 8//1 20//1
f 4//5 16//5 13//5
f 12//1 24//1 23//1
f 4//1 3//1 15//1
f 8//6 9//6 21//6
f 5//7 6//7 18//7
f 15//1 27//1 28//1
f 21//8 33//8 32//8
f 18//9 30//9 29//9
f 17//1 29//1 26//1
f 22//10 34//10 33//10
f 19//11 31//11 30//11
f 14//12 26//12 27//12
f 23//1 35//1 34//1
f 20//1 32//1 31//1
f 16//13 28//13 25//13
f 24//1 36//1 35//1
f 38//1 50//1 53//1
f 45//14 57//14 58//14
f 42//15 54//15 55//15
f 39//5 51//5 50//5
f 46//1 58//1 59//1
f 43//1 55//1 56//1
f 49//4 52//4 40//4
f 59//1 60//1 48//1
f 40//1 52//1 51//1
f 44//16 56//16 57//16
f 41//17 53//17 54//17
f 64//1 63//1 51//1
f 68//8 69//8 57//8
f 65//9 66//9 54//9
f 62//1 65//1 53//1
f 69//10 70//10 58//10
f 66//11 67//11 55//11
f 63//12 62//12 50//12
f 70//1 71//1 59//1
f 67//1 68//1 56//1
f 61//13 64//13 52//13
f 71//1 72//1 60//1
f 74//1 86//1 89//1
f 81//2 93//2 94//2
f 78//3 90//3 91//3
f 75//4 87//4 86//4
f 82//1 94//1 95//1
f 79//1 91//1 92//1
f 85//5 88//5 76//5
f 95//1 96//1 84//1
f 76//1 88//1 87//1
f 80//6 92//6 93//6
f 77//7 89//7 90//7
f 100//1 99//1 87//1
f 104//18 105//18 93//18
f 101//19 102//19 90//19
f 98//1 101//1 89//1
f 105//20 106//20 94//20
f 102//21 103//21 91//21
f 99//13 98//13 86//13
f 106//1 107//1 95//1
f 103//1 104//1 92//1
f 97//12 100//12 88//12
f 107//1 108//1 96//1
f 110//1 113//1 125//1
f 117//14 118//14 130//14
f 114//15 115//15 127//15
f 111//5 110//5 122//5
f 118//1 119//1 131//1
f 115//1 116//1 128//1
f 112//4 124//4 121//4
f 120//1 132//1 131//1
f 112//1 111//1 123//1
f 116//16 117//16 129//16
f 113//17 114//17 126//17
f 123//1 135//1 136//1
f 129//18 141//18 140//18
f 126//19 138//19 137//19
f 125//1 137//1 134//1
f 130//20 142//20 141//20
f 127//21 139//21 138//21
f 122//13 134//13 135//13
f 131//1 143//1 142//1
f 128//1 140//1 139//1
f 124//12 136//12 133//12
f 132//1 144//1 143//1
